<?xml version="1.0" encoding="UTF-8" standalone="no"?>
<!DOCTYPE svg PUBLIC "-//W3C//DTD SVG 1.1//EN" "http://www.w3.org/Graphics/SVG/1.1/DTD/svg11.dtd">
<svg width="100%" height="100%" viewBox="0 0 700 567" version="1.1" xmlns="http://www.w3.org/2000/svg" xmlns:xlink="http://www.w3.org/1999/xlink" xml:space="preserve" xmlns:serif="http://www.serif.com/" style="fill-rule:evenodd;clip-rule:evenodd;stroke-linejoin:round;stroke-miterlimit:2;">
    <g>
        <path d="M350,281.68C397.602,281.68 436.801,243.039 436.801,194.879C436.801,146.719 397.602,108.641 350,108.641C302.398,108.641 263.199,147.282 263.199,195.442C263.199,243.602 302.398,281.68 350,281.68ZM350,125.44C388.641,125.44 420,156.799 420,195.44C420,234.081 388.641,265.44 350,265.44C311.359,265.44 280,234.081 280,195.44C280,156.799 311.359,125.44 350,125.44ZM498.96,440.72C481.601,367.919 420.562,316.4 350,316.4C279.441,316.4 218.4,367.361 201.04,440.72L198.802,450.798L501.762,450.798L498.96,440.72ZM220.08,434.56C238.56,374.638 290.639,333.76 350,333.76C409.359,333.76 461.44,374.639 479.92,434.56L220.08,434.56Z" style="fill-rule:nonzero;"/>
        <g id="i">
        </g>
        <g id="d">
        </g>
        <g id="a">
        </g>
        <g id="g">
        </g>
        <g id="c">
        </g>
        <g id="a1" serif:id="a">
        </g>
        <g id="l">
        </g>
        <g id="k">
        </g>
        <g id="j">
        </g>
        <g id="i1" serif:id="i">
        </g>
        <g id="f">
        </g>
        <g id="h">
        </g>
        <g id="b">
        </g>
        <g id="b1" serif:id="b">
        </g>
        <g id="g1" serif:id="g">
        </g>
        <g id="u">
        </g>
        <g id="h1" serif:id="h">
        </g>
        <g id="b2" serif:id="b">
        </g>
        <g id="t">
        </g>
        <g id="s">
        </g>
        <g id="d1" serif:id="d">
        </g>
        <g id="e">
        </g>
        <g id="r">
        </g>
        <g id="c1" serif:id="c">
        </g>
        <g id="f1" serif:id="f">
        </g>
        <g id="a2" serif:id="a">
        </g>
        <g id="q">
        </g>
        <g id="e1" serif:id="e">
        </g>
        <g id="p">
        </g>
        <g id="b3" serif:id="b">
        </g>
        <g id="o">
        </g>
        <g id="d2" serif:id="d">
        </g>
        <g id="e2" serif:id="e">
        </g>
        <g id="n">
        </g>
        <g id="a3" serif:id="a">
        </g>
        <g id="m">
        </g>
        <g id="c2" serif:id="c">
        </g>
    </g>
</svg>
