<?xml version="1.0" encoding="UTF-8" standalone="no"?>
<!DOCTYPE svg PUBLIC "-//W3C//DTD SVG 1.1//EN" "http://www.w3.org/Graphics/SVG/1.1/DTD/svg11.dtd">
<svg width="100%" height="100%" viewBox="0 0 700 581" version="1.1" xmlns="http://www.w3.org/2000/svg" xmlns:xlink="http://www.w3.org/1999/xlink" xml:space="preserve" xmlns:serif="http://www.serif.com/" style="fill-rule:evenodd;clip-rule:evenodd;stroke-linejoin:round;stroke-miterlimit:2;">
    <g>
        <path d="M350,35C214.67,35 105,144.67 105,280C105,415.33 214.67,525 350,525C485.33,525 595,415.33 595,280C595,144.67 485.33,35 350,35ZM350,501.67C227.5,501.67 128.33,402.502 128.33,280C128.33,157.498 227.498,58.33 350,58.33C472.502,58.33 571.67,157.498 571.67,280C571.67,402.502 472.502,501.67 350,501.67Z" style="fill-rule:nonzero;"/>
        <path d="M449.17,268.33L361.67,268.33L361.67,180.83C361.67,174.412 356.42,169.162 350.002,169.162C343.584,169.162 338.334,174.412 338.334,180.83L338.334,268.33L250.834,268.33C244.416,268.33 239.166,273.58 239.166,279.998C239.166,286.416 244.416,291.666 250.834,291.666L338.334,291.666L338.334,379.166C338.334,385.584 343.584,390.834 350.002,390.834C356.42,390.834 361.67,385.584 361.67,379.166L361.67,291.666L449.17,291.666C455.588,291.666 460.838,286.416 460.838,279.998C460.834,273.58 455.584,268.33 449.17,268.33Z" style="fill-rule:nonzero;"/>
        <g id="u">
        </g>
        <g id="d">
        </g>
        <g id="b">
        </g>
        <g id="l">
        </g>
        <g id="a">
        </g>
        <g id="b1" serif:id="b">
        </g>
        <g id="f">
        </g>
        <g id="k">
        </g>
        <g id="j">
        </g>
        <g id="e">
        </g>
        <g id="t">
        </g>
        <g id="b2" serif:id="b">
        </g>
        <g id="a1" serif:id="a">
        </g>
        <g id="i">
        </g>
        <g id="h">
        </g>
        <g id="e1" serif:id="e">
        </g>
        <g id="a2" serif:id="a">
        </g>
        <g id="g">
        </g>
        <g id="f1" serif:id="f">
        </g>
        <g id="s">
        </g>
        <g id="c">
        </g>
        <g id="r">
        </g>
        <g id="d1" serif:id="d">
        </g>
        <g id="c1" serif:id="c">
        </g>
        <g id="q">
        </g>
        <g id="a3" serif:id="a">
        </g>
        <g id="h1" serif:id="h">
        </g>
        <g id="b3" serif:id="b">
        </g>
        <g id="p">
        </g>
        <g id="c2" serif:id="c">
        </g>
        <g id="g1" serif:id="g">
        </g>
        <g id="o">
        </g>
        <g id="n">
        </g>
        <g id="d2" serif:id="d">
        </g>
        <g id="c3" serif:id="c">
        </g>
        <g id="m">
        </g>
        <g id="b4" serif:id="b">
        </g>
        <g id="i1" serif:id="i">
        </g>
        <g id="a4" serif:id="a">
        </g>
    </g>
</svg>
