<?xml version="1.0" encoding="UTF-8" standalone="no"?>
<!DOCTYPE svg PUBLIC "-//W3C//DTD SVG 1.1//EN" "http://www.w3.org/Graphics/SVG/1.1/DTD/svg11.dtd">
<svg width="100%" height="100%" viewBox="0 0 700 540" version="1.1" xmlns="http://www.w3.org/2000/svg" xmlns:xlink="http://www.w3.org/1999/xlink" xml:space="preserve" xmlns:serif="http://www.serif.com/" style="fill-rule:evenodd;clip-rule:evenodd;stroke-linejoin:round;stroke-miterlimit:2;">
    <path d="M382.9,280L529.9,133.23C535.822,127.312 538.131,118.683 535.966,110.597C533.798,102.515 527.482,96.199 519.4,94.031C511.315,91.867 502.685,94.176 496.767,100.097L349.997,247.097L203.227,100.097C197.309,94.176 188.68,91.867 180.594,94.031C172.512,96.199 166.196,102.515 164.028,110.597C161.864,118.683 164.173,127.312 170.095,133.23L317.095,280L170.095,426.77C165.677,431.153 163.192,437.118 163.192,443.336C163.192,449.559 165.677,455.524 170.095,459.902C174.474,464.32 180.439,466.804 186.661,466.804C192.88,466.804 198.845,464.32 203.227,459.902L349.997,312.902L496.767,459.902C501.15,464.32 507.115,466.804 513.333,466.804C519.556,466.804 525.521,464.32 529.899,459.902C534.317,455.523 536.801,449.558 536.801,443.336C536.801,437.117 534.317,431.152 529.899,426.77L382.9,280Z" style="fill:rgb(254,254,254);fill-rule:nonzero;stroke:white;stroke-width:1px;"/>
</svg>
