<?xml version="1.0" encoding="UTF-8" standalone="no"?>
<!DOCTYPE svg PUBLIC "-//W3C//DTD SVG 1.1//EN" "http://www.w3.org/Graphics/SVG/1.1/DTD/svg11.dtd">
<svg width="100%" height="100%" viewBox="0 0 700 551" version="1.1" xmlns="http://www.w3.org/2000/svg" xmlns:xlink="http://www.w3.org/1999/xlink" xml:space="preserve" xmlns:serif="http://www.serif.com/" style="fill-rule:evenodd;clip-rule:evenodd;stroke-linejoin:round;stroke-miterlimit:2;">
    <g>
        <path d="M537.86,290.79C585.7,242.95 585.7,165.39 537.86,117.55C490.02,69.71 412.46,69.71 364.62,117.55L348.124,134.05L331.624,117.55C283.784,69.71 206.224,69.71 158.384,117.55C110.544,165.39 110.544,242.95 158.384,290.79L348.094,480.5C348.11,480.52 537.864,290.79 537.864,290.79L537.86,290.79ZM554.36,307.286L364.65,496.996C355.521,506.125 340.72,506.125 331.591,496.996L141.881,307.286C84.932,250.337 84.932,157.996 141.881,101.046C198.834,44.093 291.171,44.093 348.121,101.046C405.07,44.093 497.411,44.093 554.361,101.046C611.311,157.999 611.314,250.336 554.361,307.286L554.36,307.286Z" style="fill-rule:nonzero;"/>
        <g id="u">
        </g>
        <g id="a">
        </g>
        <g id="d">
        </g>
        <g id="g">
        </g>
        <g id="c">
        </g>
        <g id="d1" serif:id="d">
        </g>
        <g id="l">
        </g>
        <g id="k">
        </g>
        <g id="f">
        </g>
        <g id="j">
        </g>
        <g id="a1" serif:id="a">
        </g>
        <g id="t">
        </g>
        <g id="s">
        </g>
        <g id="e">
        </g>
        <g id="i">
        </g>
        <g id="g1" serif:id="g">
        </g>
        <g id="h">
        </g>
        <g id="b">
        </g>
        <g id="b1" serif:id="b">
        </g>
        <g id="a2" serif:id="a">
        </g>
        <g id="c1" serif:id="c">
        </g>
        <g id="e1" serif:id="e">
        </g>
        <g id="f1" serif:id="f">
        </g>
        <g id="r">
        </g>
        <g id="a3" serif:id="a">
        </g>
        <g id="b2" serif:id="b">
        </g>
        <g id="h1" serif:id="h">
        </g>
        <g id="c2" serif:id="c">
        </g>
        <g id="e2" serif:id="e">
        </g>
        <g id="d2" serif:id="d">
        </g>
        <g id="q">
        </g>
        <g id="b3" serif:id="b">
        </g>
        <g id="p">
        </g>
        <g id="i1" serif:id="i">
        </g>
        <g id="o">
        </g>
        <g id="a4" serif:id="a">
        </g>
        <g id="b4" serif:id="b">
        </g>
        <g id="n">
        </g>
        <g id="d3" serif:id="d">
        </g>
        <g id="m">
        </g>
        <g id="c3" serif:id="c">
        </g>
    </g>
</svg>
