<?xml version="1.0" encoding="UTF-8" standalone="no"?>
<!DOCTYPE svg PUBLIC "-//W3C//DTD SVG 1.1//EN" "http://www.w3.org/Graphics/SVG/1.1/DTD/svg11.dtd">
<svg width="100%" height="100%" viewBox="0 0 487 475" version="1.1" xmlns="http://www.w3.org/2000/svg" xmlns:xlink="http://www.w3.org/1999/xlink" xml:space="preserve" xmlns:serif="http://www.serif.com/" style="fill-rule:evenodd;clip-rule:evenodd;stroke-linejoin:round;stroke-miterlimit:2;">
    <g transform="matrix(1,0,0,1,-107,-43)">
        <path d="M546,279.44C546,387.52 458.078,475.44 350,475.44C241.922,475.44 154,387.518 154,279.44C154,171.362 241.922,83.44 350,83.44C458.078,83.44 546,171.358 546,279.44ZM512.398,279.44C512.398,189.838 439.597,117.04 349.998,117.04C260.396,117.04 187.598,189.841 187.598,279.44C187.598,369.042 260.399,441.84 349.998,441.84C439.6,442.399 512.398,369.039 512.398,279.44Z" style="fill-rule:nonzero;"/>
        <path d="M350,250.88C340.481,250.88 333.199,258.161 333.199,267.681L333.199,353.361C333.199,362.881 340.48,370.162 350,370.162C359.52,370.162 366.801,362.881 366.801,353.361L366.801,267.681C366.801,258.161 359.52,250.88 350,250.88Z" style="fill-rule:nonzero;"/>
        <path d="M350,189.28C345.52,189.28 341.039,190.96 338.238,194.319C334.879,197.12 333.199,201.6 333.199,206.077C333.199,207.198 333.199,208.315 333.757,209.437C333.757,210.558 334.316,211.675 334.879,212.796C335.437,213.917 336,214.476 336.558,215.597C337.117,216.718 337.679,217.276 338.797,218.398C344.957,224.558 356.156,224.558 362.317,218.398C362.875,217.839 363.996,216.718 364.555,215.597C365.113,214.476 365.676,213.917 366.235,212.796C366.793,211.675 366.793,210.558 367.356,209.437C367.356,208.315 367.914,207.198 367.914,206.077C367.914,201.597 366.235,197.116 362.875,194.315C358.961,190.96 354.481,189.28 350,189.28L350,189.28Z" style="fill-rule:nonzero;"/>
        <g id="u">
        </g>
        <g id="c">
        </g>
        <g id="a">
        </g>
        <g id="e">
        </g>
        <g id="b">
        </g>
        <g id="a1" serif:id="a">
        </g>
        <g id="j">
        </g>
        <g id="i">
        </g>
        <g id="h">
        </g>
        <g id="g">
        </g>
        <g id="f">
        </g>
        <g id="t">
        </g>
        <g id="s">
        </g>
        <g id="e1" serif:id="e">
        </g>
        <g id="r">
        </g>
        <g id="c1" serif:id="c">
        </g>
        <g id="d">
        </g>
        <g id="q">
        </g>
        <g id="b1" serif:id="b">
        </g>
        <g id="f1" serif:id="f">
        </g>
        <g id="a2" serif:id="a">
        </g>
        <g id="p">
        </g>
        <g id="d1" serif:id="d">
        </g>
        <g id="o">
        </g>
        <g id="n">
        </g>
        <g id="m">
        </g>
        <g id="c2" serif:id="c">
        </g>
        <g id="d2" serif:id="d">
        </g>
        <g id="l">
        </g>
        <g id="a3" serif:id="a">
        </g>
        <g id="k">
        </g>
        <g id="b2" serif:id="b">
        </g>
    </g>
</svg>
