<?xml version="1.0" encoding="UTF-8" standalone="no"?>
<!DOCTYPE svg PUBLIC "-//W3C//DTD SVG 1.1//EN" "http://www.w3.org/Graphics/SVG/1.1/DTD/svg11.dtd">
<svg width="100%" height="100%" viewBox="0 0 700 543" version="1.1" xmlns="http://www.w3.org/2000/svg" xmlns:xlink="http://www.w3.org/1999/xlink" xml:space="preserve" xmlns:serif="http://www.serif.com/" style="fill-rule:evenodd;clip-rule:evenodd;stroke-linejoin:round;stroke-miterlimit:2;">
    <g>
        <path d="M350,96.879C270.48,96.879 205.52,161.84 205.52,241.359C205.52,292.879 229.598,346.079 276.079,395.919C310.239,432.88 344.399,454.72 346.079,455.841L350.001,459.2L354.481,456.4C356.161,455.279 389.762,432.322 423.922,394.798C469.844,344.4 494.481,291.758 494.481,241.918C494.481,161.84 429.52,96.878 350.001,96.878L350,96.879ZM350,438.479C339.922,431.198 313.602,412.159 287.84,384.159C258.16,351.679 222.32,300.718 222.32,241.359C222.32,170.8 279.441,113.679 350,113.679C420.559,113.679 477.68,170.8 477.68,241.359C477.68,339.921 372.96,421.679 350,438.479ZM350,178.079C318.078,178.079 292.32,203.841 292.32,235.759C292.32,267.681 318.078,294.001 350,294.001C381.922,294.001 407.68,268.239 407.68,236.321C407.68,204.399 381.922,178.079 350,178.079ZM350,277.2C327.602,277.2 309.121,258.72 309.121,236.321C309.121,213.923 327.601,195.442 350,195.442C372.399,195.442 390.879,213.922 390.879,236.321C390.879,258.719 372.399,277.2 350,277.2Z" style="fill-rule:nonzero;"/>
        <g id="i">
        </g>
        <g id="d">
        </g>
        <g id="a">
        </g>
        <g id="g">
        </g>
        <g id="c">
        </g>
        <g id="a1" serif:id="a">
        </g>
        <g id="l">
        </g>
        <g id="k">
        </g>
        <g id="j">
        </g>
        <g id="i1" serif:id="i">
        </g>
        <g id="f">
        </g>
        <g id="h">
        </g>
        <g id="b">
        </g>
        <g id="b1" serif:id="b">
        </g>
        <g id="g1" serif:id="g">
        </g>
        <g id="u">
        </g>
        <g id="h1" serif:id="h">
        </g>
        <g id="b2" serif:id="b">
        </g>
        <g id="t">
        </g>
        <g id="s">
        </g>
        <g id="d1" serif:id="d">
        </g>
        <g id="e">
        </g>
        <g id="r">
        </g>
        <g id="c1" serif:id="c">
        </g>
        <g id="f1" serif:id="f">
        </g>
        <g id="a2" serif:id="a">
        </g>
        <g id="q">
        </g>
        <g id="e1" serif:id="e">
        </g>
        <g id="p">
        </g>
        <g id="b3" serif:id="b">
        </g>
        <g id="o">
        </g>
        <g id="d2" serif:id="d">
        </g>
        <g id="e2" serif:id="e">
        </g>
        <g id="n">
        </g>
        <g id="a3" serif:id="a">
        </g>
        <g id="m">
        </g>
        <g id="c2" serif:id="c">
        </g>
    </g>
</svg>
