<?xml version="1.0" encoding="UTF-8" standalone="no"?>
<!DOCTYPE svg PUBLIC "-//W3C//DTD SVG 1.1//EN" "http://www.w3.org/Graphics/SVG/1.1/DTD/svg11.dtd">
<svg width="100%" height="100%" viewBox="0 0 562 429" version="1.1" xmlns="http://www.w3.org/2000/svg" xmlns:xlink="http://www.w3.org/1999/xlink" xml:space="preserve" xmlns:serif="http://www.serif.com/" style="fill-rule:evenodd;clip-rule:evenodd;stroke-linejoin:round;stroke-miterlimit:2;">
    <g transform="matrix(1,0,0,1,-72,-76)">
        <path d="M508.43,376.15L191.58,376.15C181.58,376.15 172.334,381.486 167.334,390.15C162.33,398.814 162.33,409.486 167.334,418.15C172.334,426.814 181.58,432.15 191.58,432.15L508.43,432.15C518.43,432.15 527.676,426.814 532.676,418.15C537.68,409.486 537.68,398.814 532.676,390.15C527.676,381.486 518.43,376.15 508.43,376.15Z" style="fill:rgb(252,252,252);fill-rule:nonzero;stroke:rgb(252,252,252);stroke-width:1px;"/>
        <path d="M508.43,252L191.58,252C181.58,252 172.334,257.336 167.334,266C162.33,274.664 162.33,285.336 167.334,294C172.334,302.664 181.58,308 191.58,308L508.43,308C518.43,308 527.676,302.664 532.676,294C537.68,285.336 537.68,274.664 532.676,266C527.676,257.336 518.43,252 508.43,252Z" style="fill:rgb(252,252,252);fill-rule:nonzero;stroke:rgb(252,252,252);stroke-width:1px;"/>
        <path d="M508.43,127.85L191.58,127.85C181.58,127.85 172.334,133.186 167.334,141.85C162.33,150.514 162.33,161.186 167.334,169.85C172.334,178.514 181.58,183.85 191.58,183.85L508.43,183.85C518.43,183.85 527.676,178.514 532.676,169.85C537.68,161.186 537.68,150.514 532.676,141.85C527.676,133.186 518.43,127.85 508.43,127.85Z" style="fill:rgb(252,252,252);fill-rule:nonzero;stroke:white;stroke-width:1px;"/>
        <g id="u">
        </g>
        <g id="b">
        </g>
        <g id="a">
        </g>
        <g id="j">
        </g>
        <g id="c">
        </g>
        <g id="a1" serif:id="a">
        </g>
        <g id="i">
        </g>
        <g id="h">
        </g>
        <g id="g">
        </g>
        <g id="f">
        </g>
        <g id="t">
        </g>
        <g id="b1" serif:id="b">
        </g>
        <g id="s">
        </g>
        <g id="e">
        </g>
        <g id="r">
        </g>
        <g id="b2" serif:id="b">
        </g>
        <g id="d">
        </g>
        <g id="q">
        </g>
        <g id="c1" serif:id="c">
        </g>
        <g id="e1" serif:id="e">
        </g>
        <g id="a2" serif:id="a">
        </g>
        <g id="p">
        </g>
        <g id="d1" serif:id="d">
        </g>
        <g id="o">
        </g>
        <g id="n">
        </g>
        <g id="m">
        </g>
        <g id="b3" serif:id="b">
        </g>
        <g id="d2" serif:id="d">
        </g>
        <g id="l">
        </g>
        <g id="a3" serif:id="a">
        </g>
        <g id="k">
        </g>
        <g id="c2" serif:id="c">
        </g>
    </g>
</svg>
