<?xml version="1.0" encoding="UTF-8" standalone="no"?>
<!DOCTYPE svg PUBLIC "-//W3C//DTD SVG 1.1//EN" "http://www.w3.org/Graphics/SVG/1.1/DTD/svg11.dtd">
<svg width="100%" height="100%" viewBox="0 0 700 538" version="1.1" xmlns="http://www.w3.org/2000/svg" xmlns:xlink="http://www.w3.org/1999/xlink" xml:space="preserve" xmlns:serif="http://www.serif.com/" style="fill-rule:evenodd;clip-rule:evenodd;stroke-linejoin:round;stroke-miterlimit:2;">
    <g>
        <path d="M512.4,432.88L425.603,346.642C476.564,292.322 475.443,206.642 422.244,153.442C367.924,99.122 280.004,99.122 225.684,153.442C171.364,207.762 171.364,295.682 225.684,350.002C252.563,376.881 288.403,390.881 324.243,390.881C356.165,390.881 388.083,380.24 413.845,358.401L500.646,445.202L512.4,432.88ZM238,338.239C190.398,290.637 190.398,212.799 238,165.199C262.078,141.121 292.879,129.359 324.238,129.359C355.597,129.359 386.957,141.121 410.476,165.199C458.078,212.801 458.078,290.639 410.476,338.239C362.878,385.841 285.596,385.841 237.996,338.239L238,338.239Z" style="fill-rule:nonzero;"/>
        <g id="i">
        </g>
        <g id="d">
        </g>
        <g id="a">
        </g>
        <g id="g">
        </g>
        <g id="c">
        </g>
        <g id="a1" serif:id="a">
        </g>
        <g id="l">
        </g>
        <g id="k">
        </g>
        <g id="j">
        </g>
        <g id="i1" serif:id="i">
        </g>
        <g id="f">
        </g>
        <g id="h">
        </g>
        <g id="b">
        </g>
        <g id="b1" serif:id="b">
        </g>
        <g id="g1" serif:id="g">
        </g>
        <g id="u">
        </g>
        <g id="h1" serif:id="h">
        </g>
        <g id="b2" serif:id="b">
        </g>
        <g id="t">
        </g>
        <g id="s">
        </g>
        <g id="d1" serif:id="d">
        </g>
        <g id="e">
        </g>
        <g id="r">
        </g>
        <g id="c1" serif:id="c">
        </g>
        <g id="f1" serif:id="f">
        </g>
        <g id="a2" serif:id="a">
        </g>
        <g id="q">
        </g>
        <g id="e1" serif:id="e">
        </g>
        <g id="p">
        </g>
        <g id="b3" serif:id="b">
        </g>
        <g id="o">
        </g>
        <g id="d2" serif:id="d">
        </g>
        <g id="e2" serif:id="e">
        </g>
        <g id="n">
        </g>
        <g id="a3" serif:id="a">
        </g>
        <g id="m">
        </g>
        <g id="c2" serif:id="c">
        </g>
    </g>
</svg>
