<?xml version="1.0" encoding="UTF-8" standalone="no"?>
<!DOCTYPE svg PUBLIC "-//W3C//DTD SVG 1.1//EN" "http://www.w3.org/Graphics/SVG/1.1/DTD/svg11.dtd">
<svg width="100%" height="100%" viewBox="0 0 700 595" version="1.1" xmlns="http://www.w3.org/2000/svg" xmlns:xlink="http://www.w3.org/1999/xlink" xml:space="preserve" xmlns:serif="http://www.serif.com/" style="fill-rule:evenodd;clip-rule:evenodd;stroke-linejoin:round;stroke-miterlimit:2;">
    <g>
        <path d="M474.88,220.64L445.759,220.64L445.759,171.359C445.759,118.718 402.638,75.597 349.997,75.597C297.356,75.597 254.235,118.718 254.235,171.359L254.235,220.64L225.114,220.64C204.954,220.64 188.716,236.878 188.716,257.038L188.716,448.558C188.716,468.718 204.954,484.956 225.114,484.956L475.434,484.956C495.594,484.956 511.832,468.718 511.832,448.558L511.84,257.038C511.281,236.878 495.039,220.64 474.879,220.64L474.88,220.64ZM271.04,171.359C271.04,127.679 306.321,92.398 350.001,92.398C393.681,92.398 428.962,127.679 428.962,171.359L428.962,220.64L271.042,220.64L271.04,171.359ZM494.48,448.559C494.48,459.2 485.519,468.161 474.878,468.161L225.118,468.161C214.477,468.161 205.516,459.2 205.516,448.559L205.516,257.039C205.516,246.398 214.477,237.437 225.118,237.437L254.239,237.437L254.239,306.316L271.04,306.316L271.036,237.441L428.956,237.441L428.956,306.32L445.757,306.32L445.757,237.441L474.878,237.441C485.519,237.441 494.48,246.402 494.48,257.043L494.48,448.559Z" style="fill-rule:nonzero;"/>
        <g id="i">
        </g>
        <g id="d">
        </g>
        <g id="a">
        </g>
        <g id="g">
        </g>
        <g id="c">
        </g>
        <g id="a1" serif:id="a">
        </g>
        <g id="l">
        </g>
        <g id="k">
        </g>
        <g id="j">
        </g>
        <g id="i1" serif:id="i">
        </g>
        <g id="f">
        </g>
        <g id="h">
        </g>
        <g id="b">
        </g>
        <g id="b1" serif:id="b">
        </g>
        <g id="g1" serif:id="g">
        </g>
        <g id="u">
        </g>
        <g id="h1" serif:id="h">
        </g>
        <g id="b2" serif:id="b">
        </g>
        <g id="t">
        </g>
        <g id="s">
        </g>
        <g id="d1" serif:id="d">
        </g>
        <g id="e">
        </g>
        <g id="r">
        </g>
        <g id="c1" serif:id="c">
        </g>
        <g id="f1" serif:id="f">
        </g>
        <g id="a2" serif:id="a">
        </g>
        <g id="q">
        </g>
        <g id="e1" serif:id="e">
        </g>
        <g id="p">
        </g>
        <g id="b3" serif:id="b">
        </g>
        <g id="o">
        </g>
        <g id="d2" serif:id="d">
        </g>
        <g id="e2" serif:id="e">
        </g>
        <g id="n">
        </g>
        <g id="a3" serif:id="a">
        </g>
        <g id="m">
        </g>
        <g id="c2" serif:id="c">
        </g>
    </g>
</svg>
