<?xml version="1.0" encoding="UTF-8" standalone="no"?>
<!DOCTYPE svg PUBLIC "-//W3C//DTD SVG 1.1//EN" "http://www.w3.org/Graphics/SVG/1.1/DTD/svg11.dtd">
<svg width="100%" height="100%" viewBox="0 0 700 570" version="1.1" xmlns="http://www.w3.org/2000/svg" xmlns:xlink="http://www.w3.org/1999/xlink" xml:space="preserve" xmlns:serif="http://www.serif.com/" style="fill-rule:evenodd;clip-rule:evenodd;stroke-linejoin:round;stroke-miterlimit:2;">
    <g>
        <path d="M519.12,145.04L431.198,145.04L431.198,117.04C431.198,96.88 414.96,80.642 394.8,80.642L305.198,80.642C285.038,80.642 268.8,96.88 268.8,117.04L268.8,145.04L180.878,145.04L180.878,161.841L221.198,161.841L221.198,442.961C221.198,463.121 237.436,479.359 257.596,479.359L442.396,479.359C462.556,479.359 478.794,463.121 478.794,442.961L478.798,161.841L519.118,161.841L519.12,145.04ZM285.6,117.04C285.6,106.399 294.561,97.438 305.202,97.438L394.804,97.438C405.445,97.438 414.406,106.399 414.406,117.04L414.406,145.04L285.606,145.04L285.6,117.04ZM462,442.96C462,453.601 453.039,462.562 442.398,462.562L257.598,462.562C246.957,462.562 237.996,453.601 237.996,442.96L238,161.84L462,161.84L462,442.96Z" style="fill-rule:nonzero;"/>
        <g id="i">
        </g>
        <g id="d">
        </g>
        <g id="a">
        </g>
        <g id="g">
        </g>
        <g id="c">
        </g>
        <g id="a1" serif:id="a">
        </g>
        <g id="l">
        </g>
        <g id="k">
        </g>
        <g id="j">
        </g>
        <g id="i1" serif:id="i">
        </g>
        <g id="f">
        </g>
        <g id="h">
        </g>
        <g id="b">
        </g>
        <g id="b1" serif:id="b">
        </g>
        <g id="g1" serif:id="g">
        </g>
        <g id="u">
        </g>
        <g id="h1" serif:id="h">
        </g>
        <g id="b2" serif:id="b">
        </g>
        <g id="t">
        </g>
        <g id="s">
        </g>
        <g id="d1" serif:id="d">
        </g>
        <g id="e">
        </g>
        <g id="r">
        </g>
        <g id="c1" serif:id="c">
        </g>
        <g id="f1" serif:id="f">
        </g>
        <g id="a2" serif:id="a">
        </g>
        <g id="q">
        </g>
        <g id="e1" serif:id="e">
        </g>
        <g id="p">
        </g>
        <g id="b3" serif:id="b">
        </g>
        <g id="o">
        </g>
        <g id="d2" serif:id="d">
        </g>
        <g id="e2" serif:id="e">
        </g>
        <g id="n">
        </g>
        <g id="a3" serif:id="a">
        </g>
        <g id="m">
        </g>
        <g id="c2" serif:id="c">
        </g>
    </g>
</svg>
