<?xml version="1.0" encoding="UTF-8" standalone="no"?>
<!DOCTYPE svg PUBLIC "-//W3C//DTD SVG 1.1//EN" "http://www.w3.org/Graphics/SVG/1.1/DTD/svg11.dtd">
<svg width="100%" height="100%" viewBox="0 0 700 551" version="1.1" xmlns="http://www.w3.org/2000/svg" xmlns:xlink="http://www.w3.org/1999/xlink" xml:space="preserve" xmlns:serif="http://www.serif.com/" style="fill-rule:evenodd;clip-rule:evenodd;stroke-linejoin:round;stroke-miterlimit:2;">
    <g>
        <path d="M349.32,352.99C304.761,352.99 262.031,335.287 230.53,303.783C199.022,272.275 181.323,229.545 181.323,184.993C181.323,140.434 199.022,97.704 230.53,66.193C262.034,34.689 304.764,16.99 349.32,16.99C393.875,16.99 436.605,34.689 468.11,66.193C499.618,97.701 517.317,140.431 517.317,184.993C517.317,214.481 509.555,243.454 494.809,268.993C480.063,294.532 458.856,315.739 433.317,330.485C407.778,345.227 378.805,352.993 349.317,352.993L349.32,352.99ZM349.32,35.66L349.32,35.656C309.715,35.656 271.73,51.39 243.73,79.394C215.722,107.402 199.988,145.386 199.988,184.994C199.988,224.602 215.722,262.58 243.73,290.584C271.734,318.588 309.718,334.322 349.32,334.322C388.925,334.322 426.91,318.588 454.91,290.584C482.914,262.576 498.648,224.596 498.648,184.994C498.617,145.408 482.867,107.455 454.867,79.474C426.863,51.494 388.898,35.779 349.317,35.779L349.32,35.66Z" style="fill-rule:nonzero;"/>
        <path d="M453.41,526.46C408.851,526.46 366.121,508.761 334.62,477.257C303.112,445.749 285.413,403.019 285.413,358.457C285.413,313.902 303.112,271.172 334.62,239.667C366.124,208.163 408.854,190.46 453.41,190.46C497.965,190.46 540.695,208.163 572.2,239.667C603.708,271.175 621.407,313.905 621.407,358.457C621.407,387.949 613.645,416.918 598.899,442.457C584.153,467.996 562.946,489.207 537.407,503.949C511.868,518.695 482.895,526.457 453.407,526.457L453.41,526.46ZM453.41,209.13C413.805,209.13 375.82,224.864 347.82,252.868C319.812,280.872 304.078,318.856 304.078,358.458C304.078,398.063 319.812,436.048 347.82,464.058C375.824,492.062 413.808,507.796 453.41,507.796C493.015,507.796 531,492.062 559,464.058C587.004,436.05 602.738,398.066 602.738,358.458C602.707,318.876 586.957,280.923 558.957,252.948C530.953,224.968 492.988,209.253 453.407,209.253L453.41,209.13Z" style="fill-rule:nonzero;"/>
        <path d="M245.22,526.46C206.349,526.468 168.677,512.991 138.63,488.335C108.579,463.675 88.009,429.362 80.427,391.237C72.845,353.112 78.716,313.538 97.044,279.257C115.368,244.976 145.017,218.112 180.931,203.241C216.845,188.37 256.806,186.413 294.001,197.706C331.196,208.999 363.325,232.839 384.911,265.167C406.501,297.491 416.208,336.304 412.384,374.987C408.56,413.671 391.443,449.831 363.943,477.307C332.447,508.776 289.748,526.455 245.223,526.459L245.22,526.46ZM245.22,209.13C191.868,209.13 142.57,237.591 115.89,283.798C89.214,330.001 89.214,386.928 115.89,433.128C142.566,479.328 191.867,507.796 245.22,507.796C298.573,507.796 347.87,479.331 374.54,433.128C401.21,386.925 401.216,329.998 374.54,283.798C347.864,237.591 298.567,209.13 245.22,209.13Z" style="fill-rule:nonzero;"/>
        <g id="v">
        </g>
        <g id="d">
        </g>
        <g id="a">
        </g>
        <g id="g">
        </g>
        <g id="b">
        </g>
        <g id="a1" serif:id="a">
        </g>
        <g id="f">
        </g>
        <g id="j">
        </g>
        <g id="i">
        </g>
        <g id="h">
        </g>
        <g id="g1" serif:id="g">
        </g>
        <g id="f1" serif:id="f">
        </g>
        <g id="a2" serif:id="a">
        </g>
        <g id="u">
        </g>
        <g id="a3" serif:id="a">
        </g>
        <g id="t">
        </g>
        <g id="c">
        </g>
        <g id="a4" serif:id="a">
        </g>
        <g id="s">
        </g>
        <g id="a5" serif:id="a">
        </g>
        <g id="c1" serif:id="c">
        </g>
        <g id="c2" serif:id="c">
        </g>
        <g id="a6" serif:id="a">
        </g>
        <g id="b1" serif:id="b">
        </g>
        <g id="b2" serif:id="b">
        </g>
        <g id="r">
        </g>
        <g id="d1" serif:id="d">
        </g>
        <g id="e">
        </g>
        <g id="q">
        </g>
        <g id="b3" serif:id="b">
        </g>
        <g id="p">
        </g>
        <g id="a7" serif:id="a">
        </g>
        <g id="o">
        </g>
        <g id="e1" serif:id="e">
        </g>
        <g id="n">
        </g>
        <g id="c3" serif:id="c">
        </g>
        <g id="m">
        </g>
        <g id="d2" serif:id="d">
        </g>
        <g id="e2" serif:id="e">
        </g>
        <g id="l">
        </g>
        <g id="a8" serif:id="a">
        </g>
        <g id="k">
        </g>
        <g id="b4" serif:id="b">
        </g>
    </g>
</svg>
