<?xml version="1.0" encoding="UTF-8" standalone="no"?>
<!DOCTYPE svg PUBLIC "-//W3C//DTD SVG 1.1//EN" "http://www.w3.org/Graphics/SVG/1.1/DTD/svg11.dtd">
<svg width="100%" height="100%" viewBox="0 0 700 591" version="1.1" xmlns="http://www.w3.org/2000/svg" xmlns:xlink="http://www.w3.org/1999/xlink" xml:space="preserve" xmlns:serif="http://www.serif.com/" style="fill-rule:evenodd;clip-rule:evenodd;stroke-miterlimit:10;">
    <g transform="matrix(10.98,0,0,10.98,70,0)">
        <path d="M37.2,4.2L47,4L46.8,13.8L15.6,45C14.3,46.3 12.5,47 10.8,47C9.1,47 7.3,46.3 6,45C4.7,43.7 4,41.9 4,40.2C4,38.5 4.7,36.7 6,35.4L37.2,4.2Z" style="fill:none;fill-rule:nonzero;stroke:black;stroke-width:2px;"/>
    </g>
    <g transform="matrix(10.98,0,0,10.98,70,0)">
        <path d="M9.2,32.2L18.8,41.8" style="fill:none;fill-rule:nonzero;stroke:black;stroke-width:2px;"/>
    </g>
    <g transform="matrix(10.98,0,0,10.98,70,0)">
        <path d="M33.7,7.7L43.3,17.3" style="fill:none;fill-rule:nonzero;stroke:black;stroke-width:2px;"/>
    </g>
    <g transform="matrix(10.98,0,0,10.98,70,0)">
        <path d="M14,37L38.5,12.5" style="fill:none;fill-rule:nonzero;stroke:black;stroke-width:2px;"/>
    </g>
    <g transform="matrix(10.98,0,0,10.98,70,0)">
        <path d="M6.2,18.3L11.6,13" style="fill:none;fill-rule:nonzero;stroke:black;stroke-width:2px;"/>
    </g>
    <g transform="matrix(10.98,0,0,10.98,70,0)">
        <path d="M10,22.2L15.4,16.8" style="fill:none;fill-rule:nonzero;stroke:black;stroke-width:2px;"/>
    </g>
    <g transform="matrix(10.98,0,0,10.98,70,0)">
        <path d="M28.8,40.9L34.2,35.6" style="fill:none;fill-rule:nonzero;stroke:black;stroke-width:2px;"/>
    </g>
    <g transform="matrix(10.98,0,0,10.98,70,0)">
        <path d="M32.6,44.8L38,39.4" style="fill:none;fill-rule:nonzero;stroke:black;stroke-width:2px;"/>
    </g>
    <g transform="matrix(10.98,0,0,10.98,70,0)">
        <path d="M36.4,24.2L49.5,37.4L37.4,49.5L24.2,36.4" style="fill:none;fill-rule:nonzero;stroke:black;stroke-width:2px;"/>
    </g>
    <g transform="matrix(10.98,0,0,10.98,70,0)">
        <path d="M14.6,26.8L1.5,13.6L13.6,1.5L26.8,14.6" style="fill:none;fill-rule:nonzero;stroke:black;stroke-width:2px;"/>
    </g>
</svg>
