<?xml version="1.0" encoding="UTF-8" standalone="no"?>
<!DOCTYPE svg PUBLIC "-//W3C//DTD SVG 1.1//EN" "http://www.w3.org/Graphics/SVG/1.1/DTD/svg11.dtd">
<svg width="100%" height="100%" viewBox="0 0 593 560" version="1.1" xmlns="http://www.w3.org/2000/svg" xmlns:xlink="http://www.w3.org/1999/xlink" xml:space="preserve" xmlns:serif="http://www.serif.com/" style="fill-rule:evenodd;clip-rule:evenodd;stroke-linejoin:round;stroke-miterlimit:2;">
    <g transform="matrix(1,0,0,1,-43,0)">
        <path d="M507.45,259.25L368.52,259.25L368.52,120.33C368.52,114.971 364.184,110.635 358.829,110.635L113.289,110.635C107.937,110.635 103.597,114.971 103.597,120.33L103.597,365.87C103.597,371.222 107.937,375.565 113.289,375.565L252.209,375.565L252.209,514.485C252.209,519.837 256.552,524.177 261.9,524.177L507.45,524.177C512.802,524.177 517.141,519.837 517.141,514.485L517.141,268.945C517.141,263.59 512.802,259.254 507.45,259.254L507.45,259.25ZM122.98,130.02L349.13,130.02L349.13,159.094L122.98,159.094L122.98,130.02ZM122.98,165.559L349.13,165.559L349.13,193.555L122.98,193.555L122.98,165.559ZM122.98,200.016L349.13,200.016L349.13,228.016L122.98,228.016L122.98,200.016ZM122.98,337.856L252.21,337.856L252.21,356.168L122.98,356.168L122.98,337.856ZM122.98,303.399L252.21,303.399L252.21,331.395L122.98,331.395L122.98,303.399ZM122.98,268.938L252.21,268.938L252.21,296.938L122.98,296.938L122.98,268.938ZM254.73,262.477L122.98,262.477L122.98,234.473L349.13,234.473L349.13,259.246L261.9,259.246C259.044,259.246 256.498,260.504 254.728,262.477L254.73,262.477ZM497.76,504.787L271.6,504.787L271.6,365.887C271.6,365.879 271.604,365.868 271.604,365.86C271.604,365.848 271.6,365.836 271.6,365.829L271.6,278.63L497.76,278.63L497.76,504.787ZM582.967,27.997L436.037,27.997C426.635,27.997 419.017,35.614 419.017,45.017L419.017,191.947C419.017,201.349 426.634,208.967 436.037,208.967L582.967,208.967C592.369,208.967 599.987,201.35 599.987,191.947L599.987,45.017C599.987,35.615 592.37,27.997 582.967,27.997ZM463.897,170.837C459.522,170.837 455.975,167.29 455.975,162.915C455.975,158.54 459.522,154.993 463.897,154.993C468.272,154.993 471.819,158.54 471.819,162.915C471.819,167.29 468.272,170.837 463.897,170.837ZM463.897,126.407C459.522,126.407 455.975,122.86 455.975,118.485C455.975,114.102 459.522,110.563 463.897,110.563C468.272,110.563 471.819,114.102 471.819,118.485C471.819,122.86 468.272,126.407 463.897,126.407ZM463.897,81.969C459.522,81.969 455.975,78.422 455.975,74.047C455.975,69.672 459.522,66.125 463.897,66.125C468.272,66.125 471.819,69.672 471.819,74.047C471.819,78.422 468.272,81.969 463.897,81.969ZM509.502,170.836C505.127,170.836 501.58,167.289 501.58,162.914C501.58,158.539 505.127,154.992 509.502,154.992C513.885,154.992 517.424,158.539 517.424,162.914C517.424,167.289 513.885,170.836 509.502,170.836ZM509.502,126.406C505.127,126.406 501.58,122.859 501.58,118.484C501.58,114.101 505.127,110.562 509.502,110.562C513.885,110.562 517.424,114.101 517.424,118.484C517.424,122.859 513.885,126.406 509.502,126.406ZM509.502,81.968C505.127,81.968 501.58,78.421 501.58,74.046C501.58,69.671 505.127,66.124 509.502,66.124C513.885,66.124 517.424,69.671 517.424,74.046C517.424,78.421 513.885,81.968 509.502,81.968ZM555.115,170.835C550.74,170.835 547.193,167.288 547.193,162.913C547.193,158.538 550.74,154.991 555.115,154.991C559.49,154.991 563.037,158.538 563.037,162.913C563.037,167.288 559.49,170.835 555.115,170.835ZM555.115,126.405C550.74,126.405 547.193,122.858 547.193,118.483C547.193,114.1 550.74,110.561 555.115,110.561C559.49,110.561 563.037,114.1 563.037,118.483C563.037,122.858 559.49,126.405 555.115,126.405ZM555.115,81.967C550.74,81.967 547.193,78.42 547.193,74.045C547.193,69.67 550.74,66.123 555.115,66.123C559.49,66.123 563.037,69.67 563.037,74.045C563.037,78.42 559.49,81.967 555.115,81.967ZM318.735,474.767C320.001,476.029 322.044,476.029 323.301,474.767L352.551,445.521L381.797,474.767C383.059,476.029 385.106,476.029 386.368,474.767L415.618,445.521L444.864,474.767C445.497,475.4 446.325,475.716 447.145,475.716C447.969,475.716 448.797,475.4 449.43,474.767L480.961,443.236C482.223,441.974 482.223,439.927 480.961,438.666C479.703,437.408 477.656,437.408 476.395,438.666L447.145,467.912L417.899,438.666C416.637,437.408 414.59,437.408 413.328,438.666L384.086,467.912L354.832,438.666C353.575,437.408 351.532,437.408 350.266,438.666L321.02,467.912L291.778,438.666C290.508,437.408 288.469,437.408 287.2,438.666C285.942,439.928 285.942,441.974 287.2,443.236L318.735,474.767ZM318.735,408.904C320.001,410.166 322.044,410.166 323.301,408.904L352.551,379.654L381.797,408.904C383.059,410.166 385.106,410.166 386.368,408.904L415.618,379.654L444.864,408.904C445.497,409.533 446.325,409.849 447.145,409.849C447.969,409.849 448.797,409.533 449.43,408.904L480.961,377.373C482.223,376.107 482.223,374.064 480.961,372.807C479.703,371.537 477.656,371.537 476.395,372.807L447.145,402.049L417.899,372.807C416.637,371.537 414.59,371.537 413.328,372.807L384.086,402.049L354.832,372.807C353.575,371.537 351.532,371.537 350.266,372.807L321.02,402.049L291.778,372.807C290.508,371.537 288.469,371.537 287.2,372.807C285.942,374.064 285.942,376.107 287.2,377.373L318.735,408.904ZM318.735,343.037C320.001,344.303 322.044,344.303 323.301,343.037L352.551,313.791L381.797,343.037C383.059,344.303 385.106,344.303 386.368,343.037L415.618,313.791L444.864,343.037C445.497,343.67 446.325,343.986 447.145,343.986C447.969,343.986 448.797,343.67 449.43,343.037L480.961,311.51C482.223,310.244 482.223,308.201 480.961,306.936C479.703,305.678 477.656,305.678 476.395,306.936L447.145,336.19L417.899,306.936C416.637,305.678 414.59,305.678 413.328,306.936L384.086,336.19L354.832,306.936C353.575,305.678 351.532,305.678 350.266,306.936L321.02,336.19L291.778,306.936C290.508,305.678 288.469,305.678 287.2,306.936C285.942,308.201 285.942,310.244 287.2,311.51L318.735,343.037Z"/>
        <g id="w">
        </g>
        <g id="c">
        </g>
        <g id="a">
        </g>
        <g id="e">
        </g>
        <g id="d">
        </g>
        <g id="a1" serif:id="a">
        </g>
        <g id="l">
        </g>
        <g id="k">
        </g>
        <g id="j">
        </g>
        <g id="i">
        </g>
        <g id="e1" serif:id="e">
        </g>
        <g id="c1" serif:id="c">
        </g>
        <g id="a2" serif:id="a">
        </g>
        <g id="h">
        </g>
        <g id="g">
        </g>
        <g id="b">
        </g>
        <g id="v">
        </g>
        <g id="e2" serif:id="e">
        </g>
        <g id="h1" serif:id="h">
        </g>
        <g id="b1" serif:id="b">
        </g>
        <g id="u">
        </g>
        <g id="t">
        </g>
        <g id="f">
        </g>
        <g id="s">
        </g>
        <g id="c2" serif:id="c">
        </g>
        <g id="b2" serif:id="b">
        </g>
        <g id="r">
        </g>
        <g id="d1" serif:id="d">
        </g>
        <g id="q">
        </g>
        <g id="a3" serif:id="a">
        </g>
        <g id="p">
        </g>
        <g id="b3" serif:id="b">
        </g>
        <g id="o">
        </g>
        <g id="n">
        </g>
        <g id="g1" serif:id="g">
        </g>
        <g id="c3" serif:id="c">
        </g>
        <g id="b4" serif:id="b">
        </g>
        <g id="m">
        </g>
        <g id="a4" serif:id="a">
        </g>
        <g id="f1" serif:id="f">
        </g>
        <g id="d2" serif:id="d">
        </g>
    </g>
</svg>
