<?xml version="1.0" encoding="UTF-8" standalone="no"?>
<!DOCTYPE svg PUBLIC "-//W3C//DTD SVG 1.1//EN" "http://www.w3.org/Graphics/SVG/1.1/DTD/svg11.dtd">
<svg width="100%" height="100%" viewBox="0 0 389 323" version="1.1" xmlns="http://www.w3.org/2000/svg" xmlns:xlink="http://www.w3.org/1999/xlink" xml:space="preserve" xmlns:serif="http://www.serif.com/" style="fill-rule:evenodd;clip-rule:evenodd;stroke-linejoin:round;stroke-miterlimit:2;">
    <g transform="matrix(1,0,0,1,-141,-132)">
        <path d="M215.66,407.92C217.754,408.775 219.922,409.19 222.055,409.19C228.664,409.19 234.921,405.268 237.593,398.784L269.198,322.026L340.507,322.026L372.109,398.78C375.649,407.365 385.488,411.448 394.039,407.924C402.618,404.389 406.719,394.569 403.184,385.994L320.395,184.884C317.801,178.583 311.664,174.478 304.86,174.478C298.055,174.478 291.915,178.584 289.325,184.876L206.524,385.986C202.989,394.568 207.083,404.388 215.661,407.924L215.66,407.92ZM304.851,235.4L326.675,288.416L283.023,288.416L304.851,235.4Z" style="fill-rule:nonzero;"/>
        <path d="M377.91,280.7L387.703,304.501L412.051,304.501L433.84,357.411C435.738,362.02 440.184,364.809 444.879,364.809C446.391,364.809 447.93,364.513 449.422,363.907C455.52,361.399 458.422,354.419 455.918,348.321L398.629,209.181C396.793,204.708 392.43,201.794 387.59,201.794C382.75,201.794 378.395,204.712 376.551,209.181L359.707,242.091L372.613,273.439L387.586,245.08L402.231,280.635L378.661,280.635C378.411,280.635 378.165,280.694 377.911,280.705L377.91,280.7Z" style="fill-rule:nonzero;"/>
        <g id="u">
        </g>
        <g id="b">
        </g>
        <g id="a">
        </g>
        <g id="k">
        </g>
        <g id="c">
        </g>
        <g id="a1" serif:id="a">
        </g>
        <g id="j">
        </g>
        <g id="i">
        </g>
        <g id="h">
        </g>
        <g id="g">
        </g>
        <g id="b1" serif:id="b">
        </g>
        <g id="a2" serif:id="a">
        </g>
        <g id="t">
        </g>
        <g id="s">
        </g>
        <g id="f">
        </g>
        <g id="e">
        </g>
        <g id="r">
        </g>
        <g id="b2" serif:id="b">
        </g>
        <g id="d">
        </g>
        <g id="q">
        </g>
        <g id="c1" serif:id="c">
        </g>
        <g id="p">
        </g>
        <g id="a3" serif:id="a">
        </g>
        <g id="o">
        </g>
        <g id="d1" serif:id="d">
        </g>
        <g id="f1" serif:id="f">
        </g>
        <g id="n">
        </g>
        <g id="m">
        </g>
        <g id="b3" serif:id="b">
        </g>
        <g id="d2" serif:id="d">
        </g>
        <g id="e1" serif:id="e">
        </g>
        <g id="a4" serif:id="a">
        </g>
        <g id="l">
        </g>
        <g id="c2" serif:id="c">
        </g>
    </g>
</svg>
