<?xml version="1.0" encoding="UTF-8" standalone="no"?>
<!DOCTYPE svg PUBLIC "-//W3C//DTD SVG 1.1//EN" "http://www.w3.org/Graphics/SVG/1.1/DTD/svg11.dtd">
<svg width="100%" height="100%" viewBox="0 0 700 585" version="1.1" xmlns="http://www.w3.org/2000/svg" xmlns:xlink="http://www.w3.org/1999/xlink" xml:space="preserve" xmlns:serif="http://www.serif.com/" style="fill-rule:evenodd;clip-rule:evenodd;stroke-linejoin:round;stroke-miterlimit:2;">
    <g>
        <path d="M137.88,195.75C166.661,199.867 188.79,224.621 188.79,254.543C188.79,267.184 178.77,320.207 161.368,403.573C160.559,407.44 159.743,411.354 158.911,415.311C152.411,446.276 145.446,478.788 138.481,510.862C136.044,522.089 133.782,532.456 131.75,541.721C131.04,544.963 130.618,546.877 129.864,550.307C129.313,552.811 129.313,552.811 129.196,553.338C127.172,562.494 113.989,562.092 112.528,552.83C112.446,552.303 112.446,552.303 112.051,549.803C111.512,546.373 111.211,544.459 110.704,541.217C109.254,531.951 107.637,521.584 105.895,510.362C100.922,478.296 95.95,445.788 91.305,414.827C90.711,410.87 90.129,406.956 89.551,403.093C77.18,320.109 70,266.923 70,254.543C70,224.621 92.125,199.867 120.91,195.75L120.91,169.691C120.91,141.578 143.703,118.785 171.816,118.785C186.226,118.785 199.714,124.824 207.804,134.973L350.004,316.673L350.004,116.313C325.477,108.993 307.578,86.254 307.578,59.395L307.578,8.485C307.578,3.798 311.379,0.001 316.066,0.001L621.516,0.001C626.204,0.001 630.001,3.798 630.001,8.485L630.001,59.395C630.001,86.325 612.146,109.032 587.575,116.329L587.575,443.689C612.102,451.009 630.001,473.748 630.001,500.607L630.001,551.517C630.001,556.205 626.204,560.001 621.516,560.001L316.066,560.001C311.379,560.001 307.578,556.205 307.578,551.517L307.578,500.607C307.578,473.677 325.433,450.97 350.004,443.673L350.004,344.204L194.494,145.494C189.787,139.584 181.232,135.756 171.822,135.756C153.08,135.756 137.884,150.951 137.884,169.694L137.88,195.75ZM425.92,441.21L366.971,365.886L366.971,441.21L425.92,441.21ZM447.471,441.21L528.022,441.21L366.972,229.83L366.972,338.35L447.471,441.21ZM570.611,363.468L384.181,118.788L366.97,118.788L366.97,201.831L549.36,441.211L570.61,441.211L570.611,363.468ZM486.006,118.788L405.522,118.788L570.612,335.468L570.612,229.828L486.006,118.788ZM507.338,118.788L570.611,201.831L570.611,118.788L507.338,118.788ZM613.038,500.608C613.038,477.217 594.003,458.186 570.569,458.186L367.019,458.186C343.496,458.186 324.55,477.143 324.55,500.608L324.55,543.034L613.03,543.034L613.038,500.608ZM324.558,16.968L324.558,59.394C324.558,82.785 343.589,101.816 367.027,101.816L570.577,101.816C594.097,101.816 613.046,82.859 613.046,59.394L613.046,16.968L324.558,16.968ZM142.308,411.828C143.14,407.875 143.956,403.965 144.761,400.109C161.597,319.457 171.823,265.329 171.823,254.539C171.823,231.105 152.831,212.113 129.401,212.113C105.971,212.113 86.975,231.105 86.975,254.539C86.975,265.586 94.26,319.555 106.342,400.589C106.916,404.448 107.502,408.359 108.096,412.312C112.619,442.484 117.459,474.132 122.307,505.41C129.127,473.972 135.944,442.152 142.307,411.828L142.308,411.828ZM129.402,271.508C120.031,271.508 112.433,263.91 112.433,254.539C112.433,245.164 120.031,237.566 129.402,237.566C138.773,237.566 146.371,245.164 146.371,254.539C146.371,263.91 138.773,271.508 129.402,271.508Z"/>
        <g id="s">
        </g>
        <g id="c">
        </g>
        <g id="b">
        </g>
        <g id="e">
        </g>
        <g id="a">
        </g>
        <g id="b1" serif:id="b">
        </g>
        <g id="d">
        </g>
        <g id="i">
        </g>
        <g id="h">
        </g>
        <g id="g">
        </g>
        <g id="r">
        </g>
        <g id="d1" serif:id="d">
        </g>
        <g id="c1" serif:id="c">
        </g>
        <g id="b2" serif:id="b">
        </g>
        <g id="f">
        </g>
        <g id="q">
        </g>
        <g id="p">
        </g>
        <g id="o">
        </g>
        <g id="c2" serif:id="c">
        </g>
        <g id="n">
        </g>
        <g id="e1" serif:id="e">
        </g>
        <g id="m">
        </g>
        <g id="a1" serif:id="a">
        </g>
        <g id="l">
        </g>
        <g id="k">
        </g>
        <g id="j">
        </g>
        <g id="f1" serif:id="f">
        </g>
        <g id="a2" serif:id="a">
        </g>
    </g>
</svg>
