<?xml version="1.0" encoding="UTF-8" standalone="no"?>
<!DOCTYPE svg PUBLIC "-//W3C//DTD SVG 1.1//EN" "http://www.w3.org/Graphics/SVG/1.1/DTD/svg11.dtd">
<svg width="100%" height="100%" viewBox="0 0 700 566" version="1.1" xmlns="http://www.w3.org/2000/svg" xmlns:xlink="http://www.w3.org/1999/xlink" xml:space="preserve" xmlns:serif="http://www.serif.com/" style="fill-rule:evenodd;clip-rule:evenodd;stroke-linejoin:round;stroke-miterlimit:2;">
    <g>
        <path d="M190.39,507.02L261.191,440.809L345.058,84.019C347.289,74.578 345.695,64.835 340.578,56.589C335.472,48.343 327.457,42.577 318.035,40.37L232.28,20.21C212.823,15.62 193.237,27.776 188.643,47.253L104.768,404.043L155.397,539.733L155.397,540.745L595.238,540.745L595.238,507.015L190.39,507.02ZM233.382,411.696L204.429,404.891L261.792,160.821L290.757,167.63L233.382,411.696ZM221.476,54.986C221.804,53.591 223.199,52.693 224.562,53.052L310.316,73.212C311.492,73.498 312.5,75.123 312.226,76.31L298.472,134.81L207.726,113.486L221.476,54.986ZM200.007,146.31L228.96,153.115L171.593,397.175L142.636,390.366L200.007,146.31ZM149.187,426.58L211.394,441.205L169.32,480.545L149.187,426.58Z" style="fill-rule:nonzero;"/>
        <g id="g">
        </g>
        <g id="c">
        </g>
        <g id="a">
        </g>
        <g id="f">
        </g>
        <g id="b">
        </g>
        <g id="a1" serif:id="a">
        </g>
        <g id="k">
        </g>
        <g id="j">
        </g>
        <g id="i">
        </g>
        <g id="h">
        </g>
        <g id="e">
        </g>
        <g id="f1" serif:id="f">
        </g>
        <g id="v">
        </g>
        <g id="a2" serif:id="a">
        </g>
        <g id="a3" serif:id="a">
        </g>
        <g id="u">
        </g>
        <g id="g1" serif:id="g">
        </g>
        <g id="e1" serif:id="e">
        </g>
        <g id="t">
        </g>
        <g id="s">
        </g>
        <g id="c1" serif:id="c">
        </g>
        <g id="d">
        </g>
        <g id="r">
        </g>
        <g id="b1" serif:id="b">
        </g>
        <g id="e2" serif:id="e">
        </g>
        <g id="a4" serif:id="a">
        </g>
        <g id="q">
        </g>
        <g id="d1" serif:id="d">
        </g>
        <g id="p">
        </g>
        <g id="o">
        </g>
        <g id="n">
        </g>
        <g id="c2" serif:id="c">
        </g>
        <g id="d2" serif:id="d">
        </g>
        <g id="m">
        </g>
        <g id="a5" serif:id="a">
        </g>
        <g id="l">
        </g>
        <g id="b2" serif:id="b">
        </g>
    </g>
</svg>
