<?xml version="1.0" encoding="UTF-8" standalone="no"?>
<!DOCTYPE svg PUBLIC "-//W3C//DTD SVG 1.1//EN" "http://www.w3.org/Graphics/SVG/1.1/DTD/svg11.dtd">
<svg width="100%" height="100%" viewBox="0 0 603 520" version="1.1" xmlns="http://www.w3.org/2000/svg" xmlns:xlink="http://www.w3.org/1999/xlink" xml:space="preserve" xmlns:serif="http://www.serif.com/" style="fill-rule:evenodd;clip-rule:evenodd;stroke-linejoin:round;stroke-miterlimit:2;">
    <g transform="matrix(1,0,0,1,-52,0)">
        <path d="M584.18,134.91L447.74,87.055C443.158,85.528 434.502,82.981 429.412,82.981C422.795,82.981 418.721,87.055 417.193,91.637C414.646,93.672 411.591,96.727 407.009,100.801C405.989,101.309 386.646,118.617 349.482,118.617C312.318,118.617 292.974,101.308 292.462,100.801C287.88,96.727 284.825,93.672 282.278,91.637C280.751,87.055 276.676,82.981 270.059,82.981C264.457,82.981 256.313,85.528 251.731,87.055L115.811,134.91C101.557,140 92.901,155.781 96.467,170.547L113.268,238.766C116.323,250.985 125.995,258.621 138.213,258.621C141.776,258.621 145.342,258.113 148.397,256.586L186.581,241.313C187.089,240.805 187.6,240.805 188.108,240.805C188.108,240.805 188.616,241.313 188.616,242.332L206.944,450.042C208.471,465.315 221.706,477.534 236.979,477.534L464.539,477.534C479.812,477.534 493.047,465.315 494.574,450.042L512.902,242.332C512.902,241.313 513.41,240.805 513.41,240.805C513.41,240.805 513.918,240.805 514.937,241.313L553.121,256.586C556.684,258.113 559.738,258.621 563.305,258.621C575.524,258.621 585.196,250.476 588.25,238.766L605.051,170.547C607.594,155.274 598.938,140 584.176,134.91L584.18,134.91ZM434,106.398C432.98,106.906 431.453,107.925 429.926,107.925C430.438,107.925 431.965,107.417 434,106.398ZM269.56,107.925C269.052,107.925 268.54,107.925 268.54,107.417C269.052,107.417 269.052,107.925 269.56,107.925ZM582.14,164.945L565.339,233.164C564.831,234.184 564.319,236.219 562.284,236.219C561.776,236.219 561.265,236.219 560.249,235.711L522.065,220.438C519.01,218.911 515.448,218.403 511.881,218.403C499.662,218.403 489.99,227.567 488.971,240.294L471.666,448.004C471.158,451.566 467.592,455.133 464.029,455.133L235.959,455.133C232.397,455.133 228.83,452.078 228.323,448.004L209.995,240.294C208.975,227.056 199.304,218.403 187.085,218.403C183.522,218.403 180.467,218.911 176.901,220.438L138.717,235.711C136.17,236.731 134.642,235.711 133.627,233.164L117.85,164.949C116.83,161.387 119.377,156.805 122.94,155.785L259.38,107.93C261.927,106.911 263.962,106.403 265.489,105.895C267.016,106.914 271.091,110.985 277.2,116.586C278.22,117.605 303.165,140.512 350.001,140.512C396.329,140.512 421.274,117.602 422.29,116.586C428.399,110.477 432.981,106.914 434.001,105.895C435.528,106.403 438.075,106.914 440.11,107.93L576.55,155.785C580.617,157.312 582.656,161.387 582.144,164.949L582.14,164.945Z" style="fill-rule:nonzero;"/>
        <g id="x">
        </g>
        <g id="d">
        </g>
        <g id="a">
        </g>
        <g id="f">
        </g>
        <g id="c">
        </g>
        <g id="a1" serif:id="a">
        </g>
        <g id="l">
        </g>
        <g id="k">
        </g>
        <g id="j">
        </g>
        <g id="i">
        </g>
        <g id="h">
        </g>
        <g id="e">
        </g>
        <g id="f1" serif:id="f">
        </g>
        <g id="h1" serif:id="h">
        </g>
        <g id="w">
        </g>
        <g id="v">
        </g>
        <g id="e1" serif:id="e">
        </g>
        <g id="g">
        </g>
        <g id="u">
        </g>
        <g id="b">
        </g>
        <g id="t">
        </g>
        <g id="s">
        </g>
        <g id="d1" serif:id="d">
        </g>
        <g id="b1" serif:id="b">
        </g>
        <g id="r">
        </g>
        <g id="c1" serif:id="c">
        </g>
        <g id="e2" serif:id="e">
        </g>
        <g id="a2" serif:id="a">
        </g>
        <g id="q">
        </g>
        <g id="b2" serif:id="b">
        </g>
        <g id="g1" serif:id="g">
        </g>
        <g id="p">
        </g>
        <g id="o">
        </g>
        <g id="d2" serif:id="d">
        </g>
        <g id="b3" serif:id="b">
        </g>
        <g id="n">
        </g>
        <g id="a3" serif:id="a">
        </g>
        <g id="m">
        </g>
        <g id="c2" serif:id="c">
        </g>
    </g>
</svg>
